<svg xmlns="http://www.w3.org/2000/svg" version="1.1" xmlns:xlink="http://www.w3.org/1999/xlink" xmlns:svgjs="http://svgjs.dev/svgjs" width="100%" height="100%" viewBox="0 0 1000 600"><rect width="1000" height="600" x="0" y="0" fill="WHITESMOKE"/><g><rect width="333.3333333333333" height="333.3333333333333" rx="13.333333333333334" ry="13.333333333333334" y="218.7975884471026" fill="#ffefef" transform="matrix(0.635888571071071,0,0,0.635888571071071,0,54.88770667952555)" x="196.57546997070312"/><path d="M312.45384242488814 460.46425846159764L293.0000131503508 460.46425846159764L293.0000131503508 310.4642550249333L319.15429302885326 310.4642550249333L363.32659133818623 399.65344625754454L407.32997072473023 310.4642550249333L433.4842506032327 310.4642550249333L433.4842506032327 460.46425846159764L414.00226817489715 460.46425846159764L414.00226817489715 339.65907551363847L372.6734383991796 421.95074406569734L353.81082535440385 421.95074406569734L312.45384242488814 339.23677820666586L312.45384242488814 460.46425846159764Z " fill="#555555" transform="matrix(0.635888571071071,0,0,0.635888571071071,0,54.88770667952555)"/><path d="M628.3956400852862 429.52126772785385L613.2421316514035 429.52126772785385L613.2421316514035 312.6791650712296L633.6149382144673 312.6791650712296L668.0228321837322 382.1528477319251L702.299147208564 312.6791650712296L722.6719537716278 312.6791650712296L722.6719537716278 429.52126772785385L707.4965155136729 429.52126772785385L707.4965155136729 335.4203926340898L675.3035337756991 399.521268397099L660.6105516473323 399.521268397099L628.3956400852862 335.09144527300697L628.3956400852862 429.52126772785385ZM756.1368653057887 329.8940769678981L756.1368653057887 329.8940769678981Q751.8824794357839 329.8940769678981 749.119321602688 327.04319983851354Q746.3561637695922 324.21425253320115 746.3561637695922 320.2668842002071L746.3561637695922 320.2668842002071Q746.3561637695922 316.1440772746355 749.119321602688 313.31512996932304Q751.8824794357839 310.46425283993847 756.1368653057887 310.46425283993847L756.1368653057887 310.46425283993847Q760.237742407288 310.46425283993847 763.0886195366727 313.31512996932304Q765.917566841985 316.1440772746355 765.917566841985 320.2668842002071L765.917566841985 320.2668842002071Q765.917566841985 324.21425253320115 763.0886195366727 327.04319983851354Q760.237742407288 329.8940769678981 756.1368653057887 329.8940769678981ZM763.724584434766 429.52126772785385L748.7245847693887 429.52126772785385L748.7245847693887 345.83705906837974L763.724584434766 345.83705906837974L763.724584434766 429.52126772785385ZM865.2377400649301 429.52126772785385L789.6017768399495 429.52126772785385L789.6017768399495 312.6791650712296L805.084232634915 312.6791650712296L805.084232634915 415.94670662716874L865.2377400649301 415.94670662716874L865.2377400649301 429.52126772785385ZM896.3561604233666 329.8940769678981L896.3561604233666 329.8940769678981Q892.0798447292898 329.8940769678981 889.3166868961939 327.04319983851354Q886.553529063098 324.21425253320115 886.553529063098 320.2668842002071L886.553529063098 320.2668842002071Q886.553529063098 316.1440772746355 889.3166868961939 313.31512996932304Q892.0798447292898 310.46425283993847 896.3561604233666 310.46425283993847L896.3561604233666 310.46425283993847Q900.457037524866 310.46425283993847 903.2859848301784 313.31512996932304Q906.136861959563 316.1440772746355 906.136861959563 320.2668842002071L906.136861959563 320.2668842002071Q906.136861959563 324.21425253320115 903.2859848301784 327.04319983851354Q900.457037524866 329.8940769678981 896.3561604233666 329.8940769678981ZM903.9219497282719 429.52126772785385L888.9219500628944 429.52126772785385L888.9219500628944 345.83705906837974L903.9219497282719 345.83705906837974L903.9219497282719 429.52126772785385ZM958.8780888531782 431.1002150610515L958.8780888531782 431.1002150610515Q949.250896085487 431.1002150610515 943.0008962249132 428.4247765242444Q936.7728261884114 425.7274081633651 933.132475392428 421.71425035815446Q929.5140544205167 417.6791627288717 927.7596684947416 413.64407509958886Q926.0272123930387 409.6309172943782 925.5666860875227 406.9335489334989Q925.0842299579346 404.25811039669185 925.0842299579346 404.25811039669185L925.0842299579346 404.25811039669185L940.2377383918174 404.25811039669185Q940.2377383918174 404.25811039669185 940.785983993622 406.3853033316942Q941.3561594194989 408.51249626669653 943.1544049934184 411.2756540997924Q944.9745803914102 414.0388119328883 948.8561592521877 416.1879346919628Q952.715808288893 418.31512762696514 959.1851063901888 418.31512762696514L959.1851063901888 418.31512762696514Q966.619316750661 418.31512762696514 970.7201938521604 414.7624961272705Q974.8210709536597 411.2098646275758 974.8210709536597 405.9905664983948L974.8210709536597 405.9905664983948Q974.8210709536597 401.4072332673072 971.5754569909757 398.73179473050016Q968.3517728523639 396.0563561936931 962.3430010565841 394.6309176290008L962.3430010565841 394.6309176290008L950.9833521871901 391.9335492681215Q944.6675628543994 390.35460193492383 939.1412471882079 387.67916339811677Q933.6149315220161 385.0037248613097 930.2158087908269 380.3326723339334Q926.8166860596375 375.6835496306293 926.8166860596375 368.7317953997453L926.8166860596375 368.7317953997453Q926.8166860596375 357.9861816043726 934.8649314941309 351.1221466697773Q942.9351067526966 344.25811173518207 955.8737029552883 344.25811173518207L955.8737029552883 344.25811173518207Q964.5579132878752 344.25811173518207 970.2377377225722 346.7142520312673Q975.9175621572692 349.14846250328026 979.3166848884586 352.78881329926367Q982.7158076196479 356.4072342711749 984.3824742491342 360.04758506715837Q986.0272110545484 363.6879358631418 986.5096671841366 366.12214633515475Q986.9701934896526 368.57828663123996 986.9701934896526 368.57828663123996L986.9701934896526 368.57828663123996L972.4526499538633 368.57828663123996Q972.4526499538633 368.57828663123996 971.9701938242752 366.75811123324826Q971.5096675187592 364.93793583525655 969.8430008892728 362.65723413174885Q968.1982640838586 360.354602604169 964.8649308248858 358.55635703024944Q961.5535273899852 356.73618163225774 956.0272117237936 356.73618163225774L956.0272117237936 356.73618163225774Q948.4614224188883 356.73618163225774 944.9745803914102 360.20109383566364Q941.5096681880043 363.6879358631418 941.5096681880043 367.7888129646411L941.5096681880043 367.7888129646411Q941.5096681880043 371.7361812976352 944.7333523266161 374.1703917696482Q947.9789662893002 376.6265320657334 953.1982644184811 377.8984618619204L953.1982644184811 377.8984618619204L964.7114220563806 380.57390039872746Q975.4570358517533 383.09583016702925 982.4745795548538 388.86337389801497Q989.5140530820265 394.6309176290008 989.5140530820265 405.3546016003013L989.5140530820265 405.3546016003013Q989.5140530820265 412.30635583118533 985.8737022860432 418.2274083306764Q982.2333514900597 424.1484608301675 975.4570358517533 427.63530285764557Q968.6587903893746 431.1002150610515 958.8780888531782 431.1002150610515ZM1042.408788744147 431.1002150610515L1042.408788744147 431.1002150610515Q1029.4482627174832 431.1002150610515 1022.8912453198986 424.47740819125033Q1016.3561577463862 417.83267149737696 1016.3561577463862 405.83705772988947L1016.3561577463862 405.83705772988947L1016.3561577463862 358.1616201969501L1001.3561580810087 358.1616201969501L1001.3561580810087 345.83705906837974L1016.3561577463862 345.83705906837974L1016.3561577463862 324.8282876072224L1031.3561574117637 324.8282876072224L1031.3561574117637 345.83705906837974L1051.7070341507551 345.83705906837974L1051.7070341507551 358.1616201969501L1031.3561574117637 358.1616201969501L1031.3561574117637 405.83705772988947Q1031.3561574117637 412.15284706267994 1034.8210696151696 415.06951366428115Q1038.2859818185755 417.9861802658823 1044.9307185124487 417.9861802658823L1044.9307185124487 417.9861802658823Q1048.3956307158546 417.9861802658823 1051.55352538225 417.52565396036636Q1054.711420048645 417.0431978307782 1054.711420048645 417.0431978307782L1054.711420048645 417.0431978307782L1054.711420048645 429.8282852648645Q1054.711420048645 429.8282852648645 1051.092999076734 430.46425016295797Q1047.4526482807505 431.1002150610515 1042.408788744147 431.1002150610515ZM1086.926331610691 429.52126772785385L1070.5008933806214 429.52126772785385L1111.707032812265 312.6791650712296L1131.1368569402248 312.6791650712296L1172.4965051403735 429.52126772785385L1156.092996734376 429.52126772785385L1146.2903653741073 401.5826718598847L1096.7070331468876 401.5826718598847L1086.926331610691 429.52126772785385ZM1121.5096641725336 330.3546032734141L1101.4438751464804 387.67916339811677L1141.5535233745145 387.67916339811677L1121.5096641725336 330.3546032734141ZM1207.2333464707212 460.4642494937128L1192.233346805344 460.4642494937128L1192.233346805344 345.83705906837974L1207.2333464707212 345.83705906837974L1207.2333464707212 359.1046026320542L1208.1982587298976 359.1046026320542Q1210.084223600106 356.1002167341643 1213.3298375627899 352.6353045307584Q1216.5535217014017 349.14846250328026 1221.926328599088 346.7142520312673Q1227.2991354967744 344.25811173518207 1235.1938721627625 344.25811173518207L1235.1938721627625 344.25811173518207Q1244.6675561619484 344.25811173518207 1251.7728191613376 347.96425200338206Q1258.8780821607272 351.67039227158205 1263.61492416032 357.920392132156Q1268.3517661599128 364.1484621686577 1270.7201871597092 371.88969006614053Q1273.0886081595056 379.63091796362335 1273.0886081595056 387.67916339811677L1273.0886081595056 387.67916339811677Q1273.0886081595056 395.72740883261025 1270.7201871597092 403.46863673009307Q1268.3517661599128 411.2098646275758 1263.61492416032 417.4379346640776Q1258.8780821607272 423.6879345246515 1251.7728191613376 427.3940747928515Q1244.6675561619484 431.1002150610515 1235.1938721627625 431.1002150610515L1235.1938721627625 431.1002150610515Q1227.2991354967744 431.1002150610515 1221.926328599088 428.5782852927497Q1216.5535217014017 426.05635552444795 1213.3298375627899 422.5695134969699Q1210.084223600106 419.104601293564 1208.1982587298976 416.25372416417935L1208.1982587298976 416.25372416417935L1207.2333464707212 416.25372416417935L1207.2333464707212 460.4642494937128ZM1207.5622938318043 387.67916339811677L1207.5622938318043 387.67916339811677Q1207.5622938318043 395.26688252709425 1210.3254516649 402.2844262301948Q1213.088609497996 409.30196993329537 1218.680714636404 413.81951369216637Q1224.2947495988844 418.31512762696514 1232.671942394461 418.31512762696514L1232.671942394461 418.31512762696514Q1241.1807141344705 418.31512762696514 1246.7947490969507 413.81951369216637Q1252.4087840594314 409.30196993329537 1255.171941892527 402.2844262301948Q1257.9350997256229 395.26688252709425 1257.9350997256229 387.67916339811677L1257.9350997256229 387.67916339811677Q1257.9350997256229 379.937935500634 1255.171941892527 372.98618126975Q1252.4087840594314 366.0563568629382 1246.7947490969507 361.53881310406723Q1241.1807141344705 357.0431991692684 1232.671942394461 357.0431991692684L1232.671942394461 357.0431991692684Q1224.2947495988844 357.0431991692684 1218.680714636404 361.53881310406723Q1213.088609497996 366.0563568629382 1210.3254516649 372.98618126975Q1207.5622938318043 379.937935500634 1207.5622938318043 387.67916339811677ZM1310.19387048965 460.4642494937128L1295.1938708242724 460.4642494937128L1295.1938708242724 345.83705906837974L1310.19387048965 345.83705906837974L1310.19387048965 359.1046026320542L1311.136852924754 359.1046026320542Q1313.0228177949623 356.1002167341643 1316.268431757646 352.6353045307584Q1319.5140457203302 349.14846250328026 1324.8649227939443 346.7142520312673Q1330.2377296916309 344.25811173518207 1338.132466357619 344.25811173518207L1338.132466357619 344.25811173518207Q1347.6061503568046 344.25811173518207 1354.711413356194 347.96425200338206Q1361.8166763555832 351.67039227158205 1366.5535183551763 357.920392132156Q1371.290360354769 364.1484621686577 1373.6587813545655 371.88969006614053Q1376.0272023543619 379.63091796362335 1376.0272023543619 387.67916339811677L1376.0272023543619 387.67916339811677Q1376.0272023543619 395.72740883261025 1373.6587813545655 403.46863673009307Q1371.290360354769 411.2098646275758 1366.5535183551763 417.4379346640776Q1361.8166763555832 423.6879345246515 1354.711413356194 427.3940747928515Q1347.6061503568046 431.1002150610515 1338.132466357619 431.1002150610515L1338.132466357619 431.1002150610515Q1330.2377296916309 431.1002150610515 1324.8649227939443 428.5782852927497Q1319.5140457203302 426.05635552444795 1316.268431757646 422.5695134969699Q1313.0228177949623 419.104601293564 1311.136852924754 416.25372416417935L1311.136852924754 416.25372416417935L1310.19387048965 416.25372416417935L1310.19387048965 460.4642494937128ZM1310.5008880266605 387.67916339811677L1310.5008880266605 387.67916339811677Q1310.5008880266605 395.26688252709425 1313.2640458597564 402.2844262301948Q1316.0272036928523 409.30196993329537 1321.6412386553327 413.81951369216637Q1327.2333437937407 418.31512762696514 1335.6105365893172 418.31512762696514L1335.6105365893172 418.31512762696514Q1344.141238153399 418.31512762696514 1349.733343291807 413.81951369216637Q1355.3473782542876 409.30196993329537 1358.1105360873833 402.2844262301948Q1360.8736939204791 395.26688252709425 1360.8736939204791 387.67916339811677L1360.8736939204791 387.67916339811677Q1360.8736939204791 379.937935500634 1358.1105360873833 372.98618126975Q1355.3473782542876 366.0563568629382 1349.733343291807 361.53881310406723Q1344.141238153399 357.0431991692684 1335.6105365893172 357.0431991692684L1335.6105365893172 357.0431991692684Q1327.2333437937407 357.0431991692684 1321.6412386553327 361.53881310406723Q1316.0272036928523 366.0563568629382 1313.2640458597564 372.98618126975Q1310.5008880266605 379.937935500634 1310.5008880266605 387.67916339811677Z " fill="#555555" transform="matrix(0.635888571071071,0,0,0.635888571071071,0,54.88770667952555)"/></g></svg>